Coordinates
version=1
nRows=10
nColumns=40
inDegrees=yes

Units are S.I. units (second, meters, Newtons, ...)
Angles are in degrees.

endheader
time	pelvis_tilt	pelvis_list	pelvis_rotation	pelvis_tx	pelvis_ty	pelvis_tz	hip_flexion_r	hip_adduction_r	hip_rotation_r	knee_angle_r	knee_angle_r_beta	ankle_angle_r	subtalar_angle_r	mtp_angle_r	hip_flexion_l	hip_adduction_l	hip_rotation_l	knee_angle_l	knee_angle_l_beta	ankle_angle_l	subtalar_angle_l	mtp_angle_l	lumbar_extension	lumbar_bending	lumbar_rotation	arm_flex_r	arm_add_r	arm_rot_r	elbow_flex_r	pro_sup_r	wrist_flex_r	wrist_dev_r	arm_flex_l	arm_add_l	arm_rot_l	elbow_flex_l	pro_sup_l	wrist_flex_l	wrist_dev_l
     51.06442857	     -6.90639910	     -5.96852348	      5.06862491	      1.03453414	      0.92776118	      0.47586889	     10.13269583	      5.32619111	    -16.67943290	     12.63336231	     12.63336231	     11.71332637	     -0.06369882	     -1.88937350	     41.60776973	    -11.06066970	      3.44449517	     52.15541238	     52.15541238	      6.27740840	    -18.75611780	     14.48331642	    -12.05803213	      4.01797831	      4.36704578	     33.71214601	    -15.92487168	      4.59780317	     67.26105887	     44.70510798	      0.00000000	      0.00000000	     -5.12318750	     -6.94035865	     -7.96498778	     26.33281085	     47.19976798	      0.00000000	      0.00000000
     51.07635714	     -6.96520454	     -5.96051068	      5.25642339	      1.03390226	      0.92758737	      0.47543443	      9.38703036	      5.36216280	    -17.04094542	     12.15262191	     12.15262191	     12.02672321	      0.61566668	     -1.90143600	     41.76632727	    -10.58763041	      3.25397099	     48.20207076	     48.20207076	      6.63119991	    -18.54500984	     14.95134557	    -12.13665341	      4.10580488	      4.39589483	     35.42990207	    -16.06720937	      4.78338348	     70.73544769	     44.62376889	      0.00000000	      0.00000000	     -5.80068027	     -6.92554398	     -7.75103431	     25.22064855	     47.10742223	      0.00000000	      0.00000000
     51.08828571	     -7.09536164	     -5.90080627	      5.37954107	      1.03323948	      0.92722289	      0.47484610	      8.79094636	      5.34638019	    -17.08094577	     11.80257363	     11.80257363	     12.31724136	      0.78435111	     -1.95277520	     41.80928304	     -9.99490397	      3.18325701	     44.08657697	     44.08657697	      6.87777254	    -18.05692622	     15.17937192	    -12.07615737	      4.11280032	      4.42860440	     37.58072847	    -15.86468569	      4.54415923	     72.27484480	     44.59730851	      0.00000000	      0.00000000	     -6.62394600	     -6.91924437	     -7.67531171	     24.77961746	     47.07067732	      0.00000000	      0.00000000
     51.10021429	     -7.21207736	     -5.93341974	      5.55344898	      1.03271768	      0.92666566	      0.47406061	      8.14987906	      5.40140156	    -17.39647918	     11.40462954	     11.40462954	     12.61846449	      1.30760103	     -2.02877568	     41.75701447	     -9.42975502	      3.33310598	     39.96025072	     39.96025072	      7.00857424	    -17.12756382	     14.76546288	    -12.02818054	      4.25404117	      4.29137943	     39.62068464	    -15.58687593	      4.41178468	     74.40440870	     44.55289351	      0.00000000	      0.00000000	     -7.49755413	     -6.85636009	     -7.51035424	     24.54137973	     47.00812623	      0.00000000	      0.00000000
     51.11214286	     -7.37354282	     -5.92100699	      5.63851308	      1.03230026	      0.92598822	      0.47321632	      7.60589522	      5.39576958	    -17.51000286	     11.12682355	     11.12682355	     12.95345990	      1.64743191	     -2.13838863	     41.61219973	     -8.90730794	      3.40469955	     35.86105840	     35.86105840	      7.33179487	    -15.51412064	     14.61595851	    -11.92015793	      4.33676400	      4.47639452	     41.53648889	    -15.51639522	      4.25155967	     75.85976712	     44.52533019	      0.00000000	      0.00000000	     -8.24731210	     -6.85299436	     -7.42088651	     24.43817262	     46.96848578	      0.00000000	      0.00000000
     51.12407143	     -7.45032548	     -5.96739201	      5.73411182	      1.03215840	      0.92524819	      0.47227840	      6.92061050	      5.46314331	    -17.75268456	     10.78690694	     10.78690694	     13.30213531	      2.17077144	     -2.24325313	     41.31253135	     -8.50582605	      3.43874767	     31.91350990	     31.91350990	      7.69819400	    -13.43572651	     14.27844208	    -11.85356561	      4.45864114	      4.49473637	     43.34640518	    -15.27008647	      4.16336652	     77.58962036	     44.48729163	      0.00000000	      0.00000000	     -9.06365982	     -6.82040157	     -7.29110522	     24.50917720	     46.91693118	      0.00000000	      0.00000000
     51.13600000	     -7.47255358	     -6.12236575	      5.81548137	      1.03224341	      0.92436689	      0.47122432	      6.17996449	      5.59868457	    -18.30281283	     10.49984685	     10.49984685	     13.80160406	      3.31718754	     -2.18334307	     40.88264916	     -8.28999199	      3.31415745	     28.07536417	     28.07536417	      7.33425499	    -11.18084261	     12.04161440	    -11.91951996	      4.73849350	      4.77333025	     44.67235092	    -15.53967170	      4.08568399	     80.44863721	     44.45804126	      0.00000000	      0.00000000	    -10.34243643	     -6.95698691	     -6.25697891	     26.35440222	     46.64008908	      0.00000000	      0.00000000
     51.14792857	     -7.54205480	     -6.20320284	      5.83834398	      1.03256871	      0.92342034	      0.47011482	      5.46370682	      5.71383706	    -18.40399235	     10.16187953	     10.16187953	     14.07522478	      3.64596767	     -2.24472208	     40.47468117	     -8.01944022	      3.13882605	     24.68017753	     24.68017753	      7.84001798	     -8.93486267	     12.18553096	    -11.79806128	      4.90639631	      4.77353317	     46.36756011	    -15.09374279	      4.00799371	     81.59548752	     44.44224553	      0.00000000	      0.00000000	    -11.05982513	     -6.91510861	     -5.97189754	     26.36636298	     46.56790407	      0.00000000	      0.00000000
     51.15985714	     -7.55567465	     -6.38237069	      5.85118277	      1.03306400	      0.92233404	      0.46898032	      4.65960346	      5.91954481	    -18.70495079	      9.79488194	      9.79488194	     14.49187693	      4.44860180	     -2.28849431	     40.14515735	     -7.94255554	      2.58909995	     21.89235192	     21.89235192	      8.23070860	     -6.55979307	     12.43699832	    -11.72213567	      5.20763278	      4.82966520	     47.82403658	    -14.76952813	      4.00049037	     83.04100719	     44.43369496	      0.00000000	      0.00000000	    -12.15709658	     -6.98395667	     -5.29596388	     27.37185186	     46.40740740	      0.00000000	      0.00000000
     51.17178571	     -7.57513411	     -6.45906610	      5.80353942	      1.03378550	      0.92124985	      0.46773419	      3.92333073	      6.00578487	    -18.66804515	      9.59406658	      9.59406658	     14.87585127	      4.74654764	     -2.38323837	     39.67014644	     -7.73582712	      2.08044184	     19.37484423	     19.37484423	      8.38580130	     -5.11368188	     12.90005619	    -11.54341704	      5.36456503	      4.97377355	     49.16900944	    -14.47893572	      3.95710939	     83.93646993	     44.42041613	      0.00000000	      0.00000000	    -12.78165982	     -6.95631099	     -5.09828333	     27.57267576	     46.35799655	      0.00000000	      0.00000000
